<svg width="106" height="31" viewBox="0 0 106 31" fill="none" xmlns="http://www.w3.org/2000/svg">
<path d="M12.23 1.9375H17.3858L29.6957 30.5156H22.6614L20.2234 24.4609H9.23243L6.87437 30.5156H0L12.23 1.9375ZM14.628 10.2526L11.1908 19.1328H18.1052L14.628 10.2526Z" fill="white"/>
<path d="M31.8623 0H37.8574V30.5156H31.8623V0Z" fill="white"/>
<path d="M42.2444 10.8984H48.2395V30.5156H42.2444V10.8984ZM41.7648 4.72266C41.7648 3.75391 42.0979 2.93316 42.764 2.26042C43.4568 1.56076 44.2828 1.21094 45.242 1.21094C46.2012 1.21094 47.0139 1.56076 47.68 2.26042C48.3727 2.93316 48.7191 3.75391 48.7191 4.72266C48.7191 5.69141 48.3727 6.52561 47.68 7.22526C47.0139 7.898 46.2012 8.23437 45.242 8.23437C44.2828 8.23437 43.4568 7.898 42.764 7.22526C42.0979 6.52561 41.7648 5.69141 41.7648 4.72266Z" fill="white"/>
<path d="M50.5083 10.8984H56.983L61.899 24.2187H61.9789L66.5352 10.8984H72.5702L64.8965 30.5156H58.5417L50.5083 10.8984Z" fill="white"/>
<path d="M74.8349 10.8984H80.83V30.5156H74.8349V10.8984ZM74.3553 4.72266C74.3553 3.75391 74.6884 2.93316 75.3545 2.26042C76.0473 1.56076 76.8732 1.21094 77.8325 1.21094C78.7917 1.21094 79.6043 1.56076 80.2705 2.26042C80.9632 2.93316 81.3096 3.75391 81.3096 4.72266C81.3096 5.69141 80.9632 6.52561 80.2705 7.22526C79.6043 7.898 78.7917 8.23437 77.8325 8.23437C76.8732 8.23437 76.0473 7.898 75.3545 7.22526C74.6884 6.52561 74.3553 5.69141 74.3553 4.72266Z" fill="white"/>
<path d="M84.4177 20.707C84.4177 19.1463 84.6975 17.7335 85.257 16.4688C85.8165 15.204 86.5759 14.1276 87.5351 13.2396C88.521 12.3247 89.6667 11.625 90.9723 11.1406C92.3046 10.6562 93.7167 10.4141 95.2088 10.4141C96.701 10.4141 98.0998 10.6562 99.4054 11.1406C100.738 11.625 101.883 12.3247 102.843 13.2396C103.828 14.1276 104.601 15.204 105.161 16.4688C105.72 17.7335 106 19.1463 106 20.707C106 22.2678 105.72 23.6806 105.161 24.9453C104.601 26.2101 103.828 27.2999 102.843 28.2148C101.883 29.1029 100.738 29.7891 99.4054 30.2734C98.0998 30.7578 96.701 31 95.2088 31C93.7167 31 92.3046 30.7578 90.9723 30.2734C89.6667 29.7891 88.521 29.1029 87.5351 28.2148C86.5759 27.2999 85.8165 26.2101 85.257 24.9453C84.6975 23.6806 84.4177 22.2678 84.4177 20.707ZM90.4128 20.707C90.4128 22.1871 90.8258 23.3845 91.6518 24.2995C92.5044 25.2144 93.6901 25.6719 95.2088 25.6719C96.7276 25.6719 97.9 25.2144 98.726 24.2995C99.5786 23.3845 100.005 22.1871 100.005 20.707C100.005 19.227 99.5786 18.0295 98.726 17.1146C97.9 16.1997 96.7276 15.7422 95.2088 15.7422C93.6901 15.7422 92.5044 16.1997 91.6518 17.1146C90.8258 18.0295 90.4128 19.227 90.4128 20.707Z" fill="white"/>
</svg>
