<svg width="81" height="81" viewBox="0 0 81 81" fill="none" xmlns="http://www.w3.org/2000/svg">
<g clip-path="url(#clip0_1_31)">
<path d="M40.5 0C18.1669 0 0 18.1687 0 40.5C0 62.8313 18.1669 81 40.5 81C62.8331 81 81 62.8313 81 40.5C81 18.1687 62.8331 0 40.5 0ZM40.5 77.6251C20.0291 77.6251 3.37495 60.9709 3.37495 40.5C3.37495 20.0291 20.0291 3.37495 40.5 3.37495C60.9709 3.37495 77.6251 20.0291 77.6251 40.5C77.6251 60.9709 60.9709 77.6251 40.5 77.6251Z" fill="white"/>
<path d="M56.2254 39.5707L32.6005 24.2709C32.0831 23.9307 31.414 23.9123 30.8801 24.2078C30.3362 24.5066 30 25.0778 30 25.7004V56.3C30 56.9225 30.3362 57.4937 30.8801 57.7925C31.1305 57.9304 31.4107 58 31.6876 58C32.004 58 32.3237 57.9103 32.6005 57.7294L56.2254 42.4296C56.7067 42.1175 57 41.5779 57 41.0002C57 40.4224 56.7067 39.883 56.2254 39.5707ZM33.3749 53.1855V28.8148L52.1913 41.0002L33.3749 53.1855Z" fill="white"/>
</g>
<defs>
<clipPath id="clip0_1_31">
<rect width="81" height="81" fill="white"/>
</clipPath>
</defs>
</svg>
